<?xml version="1.0" encoding="UTF-8" standalone="no"?>
<!-- Created with Inkscape (http://www.inkscape.org/) -->

<svg
   xmlns:dc="http://purl.org/dc/elements/1.1/"
   xmlns:cc="http://creativecommons.org/ns#"
   xmlns:rdf="http://www.w3.org/1999/02/22-rdf-syntax-ns#"
   xmlns:svg="http://www.w3.org/2000/svg"
   xmlns="http://www.w3.org/2000/svg"
   xmlns:sodipodi="http://sodipodi.sourceforge.net/DTD/sodipodi-0.dtd"
   xmlns:inkscape="http://www.inkscape.org/namespaces/inkscape"
   id="svg3045"
   version="1.1"
   inkscape:version="0.92.4 (5da689c313, 2019-01-14)"
   width="64.15155"
   height="69.346733"
   xml:space="preserve"
   sodipodi:docname="Logo.svg"><metadata
     id="metadata3051"><rdf:RDF><cc:Work
         rdf:about=""><dc:format>image/svg+xml</dc:format><dc:type
           rdf:resource="http://purl.org/dc/dcmitype/StillImage" /><dc:title></dc:title></cc:Work></rdf:RDF></metadata><defs
     id="defs3049"><clipPath
       clipPathUnits="userSpaceOnUse"
       id="clipPath3063"><path
         d="M 0,560 H 960 V 0 H 0 Z"
         id="path3065"
         inkscape:connector-curvature="0" /></clipPath><clipPath
       clipPathUnits="userSpaceOnUse"
       id="clipPath3091"><path
         d="M 0,560 H 960 V 0 H 0 Z"
         id="path3093"
         inkscape:connector-curvature="0" /></clipPath><clipPath
       clipPathUnits="userSpaceOnUse"
       id="clipPath3099"><path
         d="M 175.758,476.879 H 280.539 V 362.861 H 175.758 Z"
         id="path3101"
         inkscape:connector-curvature="0" /></clipPath><linearGradient
       x1="0"
       y1="0"
       x2="1"
       y2="0"
       gradientUnits="userSpaceOnUse"
       gradientTransform="matrix(20.333332,-95.333328,-95.333328,-20.333332,486.74857,470.54193)"
       spreadMethod="pad"
       id="linearGradient3155"><stop
         style="stop-opacity:1;stop-color:#ffffff"
         offset="0"
         id="stop3157" /><stop
         style="stop-opacity:1;stop-color:#d16b18"
         offset="0.904762"
         id="stop3159" /><stop
         style="stop-opacity:1;stop-color:#d16b18"
         offset="0.904762"
         id="stop3161" /><stop
         style="stop-opacity:1;stop-color:#231f20"
         offset="1"
         id="stop3163" /></linearGradient><clipPath
       clipPathUnits="userSpaceOnUse"
       id="clipPath3171"><path
         d="M 483.014,485.122 470.868,402.55 c -10e-4,-0.006 -0.002,-0.013 -0.002,-0.02 v 0 c 0.005,-0.003 0.01,-0.008 0.015,-0.012 v 0 l 34.154,-29.875 3.948,-3.452 c -0.241,0.652 -0.361,0.979 -0.361,0.979 v 0 c 0,0 -0.121,0.327 -0.361,0.981 v 0 l -2.566,2.245 -33.76,29.529 11.804,80.257 36.326,-31.773 -11.804,-80.258 c 0.24,-0.654 0.361,-0.981 0.361,-0.981 v 0 c 0,0 0.12,-0.327 0.361,-0.979 v 0 l 12.148,82.591 c 0,0.007 10e-4,0.014 0.003,0.02 v 0 l -0.015,0.013 -38.087,33.315 c -0.005,0.004 -0.01,0.008 -0.015,0.012 v 0 c -10e-4,-0.006 -0.002,-0.012 -0.003,-0.02"
         id="path3173"
         inkscape:connector-curvature="0" /></clipPath><clipPath
       clipPathUnits="userSpaceOnUse"
       id="clipPath3301"><path
         d="M 0,560 H 960 V 0 H 0 Z"
         id="path3303"
         inkscape:connector-curvature="0" /></clipPath><clipPath
       clipPathUnits="userSpaceOnUse"
       id="clipPath3325"><path
         d="M 0,560 H 960 V 0 H 0 Z"
         id="path3327"
         inkscape:connector-curvature="0" /></clipPath><linearGradient
       x1="0"
       y1="0"
       x2="1"
       y2="0"
       gradientUnits="userSpaceOnUse"
       gradientTransform="matrix(333.072,0,0,333.072,538.964,91)"
       spreadMethod="pad"
       id="linearGradient3331"><stop
         style="stop-opacity:1;stop-color:#ffffff"
         offset="0"
         id="stop3333" /><stop
         style="stop-opacity:1;stop-color:#231f20"
         offset="1"
         id="stop3335" /></linearGradient></defs><sodipodi:namedview
     pagecolor="#ffffff"
     bordercolor="#666666"
     borderopacity="1"
     objecttolerance="10"
     gridtolerance="10"
     guidetolerance="10"
     inkscape:pageopacity="0"
     inkscape:pageshadow="2"
     inkscape:window-width="1920"
     inkscape:window-height="1015"
     id="namedview3047"
     showgrid="false"
     inkscape:snap-bbox="true"
     inkscape:zoom="1.33"
     inkscape:cx="95.539602"
     inkscape:cy="-53.118701"
     inkscape:window-x="0"
     inkscape:window-y="48"
     inkscape:window-maximized="1"
     inkscape:current-layer="layer1"
     fit-margin-top="0"
     fit-margin-left="0"
     fit-margin-right="0"
     fit-margin-bottom="0"
     showborder="false"><inkscape:grid
       type="xygrid"
       id="grid3339"
       originx="-232.05679"
       originy="-645.56533"
       spacingx="1"
       spacingy="1" /></sodipodi:namedview><g
     inkscape:groupmode="layer"
     id="layer2"
     inkscape:label="Book"
     style="display:inline"
     transform="translate(-232.05679,14.91207)"><g
       id="g4196"
       transform="translate(268.42105,-270.62)"><rect
         transform="matrix(0.98828098,0.15264565,-0.21051791,0.97759,0,0)"
         y="272.24515"
         x="32.301399"
         height="46.72028"
         width="51.630409"
         id="rect4374"
         style="display:inline;fill:#005bb2;fill-opacity:1;stroke:none;stroke-width:4.0057888;stroke-miterlimit:4;stroke-dasharray:none;stroke-opacity:1" /><rect
         style="display:inline;fill:#ffa30a;fill-opacity:1;stroke:none;stroke-width:4.00317192;stroke-miterlimit:4;stroke-dasharray:none;stroke-opacity:1"
         id="rect4376"
         width="42.597424"
         height="47.160267"
         x="44.431393"
         y="258.19159"
         transform="matrix(0.95415969,0.299298,-0.22232972,0.97497154,0,0)" /><path
         sodipodi:nodetypes="ccccc"
         inkscape:connector-curvature="0"
         id="rect4378"
         d="m -2.7243534,259.13229 30.5116404,20.60856 -9.30174,44.60404 -32.00187,-19.4276 z"
         style="display:inline;fill:#005bb2;fill-opacity:1;stroke:none;stroke-width:4.11158609;stroke-miterlimit:4;stroke-dasharray:none;stroke-opacity:1" /><rect
         style="display:inline;fill:#ffa30a;fill-opacity:1;stroke:none;stroke-width:4.55375338;stroke-miterlimit:4;stroke-dasharray:54.64503816, 54.64503816;stroke-dashoffset:20.49188995;stroke-opacity:1"
         id="rect4380"
         width="31.461424"
         height="45.533016"
         x="68.821426"
         y="206.46597"
         transform="matrix(0.64535205,0.76388528,-0.17886945,0.98387282,0,0)" /><path
         sodipodi:nodetypes="cccccc"
         inkscape:connector-curvature="0"
         id="path4782"
         d="m 7.4835966,255.70793 -1.84786,1.13971 -8,44 21.2240104,24.17977 0.78308,-0.48786 -20.30370044,-24.03292"
         style="display:inline;fill:#f5eeee;fill-opacity:1;fill-rule:evenodd;stroke:none;stroke-width:1px;stroke-linecap:butt;stroke-linejoin:miter;stroke-opacity:1" /><path
         sodipodi:nodetypes="cccccc"
         inkscape:connector-curvature="0"
         id="path4786"
         d="m -2.7243534,259.13229 -1.63991,0.71535 -10.9999996,46 32.93045,19.20702 0.74115,-0.42544 -31.82366,-19.71194"
         style="display:inline;fill:#f6e8e8;fill-opacity:1;fill-rule:evenodd;stroke:none;stroke-width:1px;stroke-linecap:butt;stroke-linejoin:miter;stroke-opacity:1" /><path
         style="display:inline;fill:#f2e4e4;fill-opacity:1;fill-rule:evenodd;stroke:none;stroke-width:1px;stroke-linecap:butt;stroke-linejoin:miter;stroke-opacity:1"
         d="m -14.506873,265.02766 -1.85739,0.81998 -11,46 44,13 -0.64259,-1.42119 -41.48728,-12.41886"
         id="path4788"
         inkscape:connector-curvature="0"
         sodipodi:nodetypes="cccccc" /><path
         sodipodi:nodetypes="cccccc"
         inkscape:connector-curvature="0"
         id="path4810"
         d="m -25.389623,271.0748 -1.97464,0.77284 -9,45.48308 52,7.51692 -0.11662,-0.50275 -50.74419,-7.59681"
         style="display:inline;fill:#f2e4e4;fill-opacity:1;fill-rule:evenodd;stroke:none;stroke-width:1px;stroke-linecap:butt;stroke-linejoin:miter;stroke-opacity:1" /></g></g><g
     inkscape:groupmode="layer"
     id="layer1"
     inkscape:label="LearningStacks"
     style="display:inline"
     transform="translate(-5.518201,274.80922)">
</g></svg>