<?xml version="1.0" standalone="no"?>
<!DOCTYPE svg PUBLIC "-//W3C//DTD SVG 20010904//EN"
 "http://www.w3.org/TR/2001/REC-SVG-20010904/DTD/svg10.dtd">
<svg version="1.0" xmlns="http://www.w3.org/2000/svg"
 width="552.000000pt" height="552.000000pt" viewBox="0 0 552.000000 552.000000"
 preserveAspectRatio="xMidYMid meet">
<metadata>
Created by potrace 1.11, written by Peter Selinger 2001-2013
</metadata>
<g transform="translate(0.000000,552.000000) scale(0.100000,-0.100000)"
fill="#000000" stroke="none">
<path d="M2885 5228 c-2 -7 -151 -636 -330 -1398 -180 -762 -371 -1574 -425
-1805 -55 -231 -96 -422 -92 -426 9 -8 1343 -823 1882 -1149 212 -128 399
-248 417 -267 23 -25 38 -33 52 -28 12 4 34 -3 58 -18 21 -13 49 -30 63 -37
l25 -13 -26 29 c-15 16 -370 421 -789 899 -420 479 -772 880 -782 891 -19 22
-17 34 246 1483 146 803 266 1465 266 1470 0 10 -541 381 -555 381 -3 0 -8 -6
-10 -12z"/>
<path d="M1080 4283 c0 -5 -175 -820 -389 -1813 -214 -993 -389 -1806 -387
-1807 5 -5 3880 -583 3888 -581 5 2 -722 219 -1617 483 -894 264 -1631 483
-1636 486 -6 4 136 618 366 1578 207 865 375 1574 373 1575 -6 5 -553 86 -575
86 -13 0 -23 -3 -23 -7z"/>
</g>
</svg>
